<?xml version="1.0" standalone="no"?>
<!DOCTYPE svg PUBLIC "-//W3C//DTD SVG 20010904//EN"
 "http://www.w3.org/TR/2001/REC-SVG-20010904/DTD/svg10.dtd">
<svg version="1.0" xmlns="http://www.w3.org/2000/svg"
 width="500.000000pt" height="500.000000pt" viewBox="0 0 500.000000 500.000000"
 preserveAspectRatio="xMidYMid meet">

<g transform="translate(0.000000,500.000000) scale(0.100000,-0.100000)"
fill="#000000" stroke="none">
<path d="M0 2500 l0 -2500 2500 0 2500 0 0 2500 0 2500 -2500 0 -2500 0 0
-2500z m2444 769 c25 -24 28 -30 16 -44 -12 -14 -25 -4 -122 92 l-108 108
-170 -170 -170 -170 122 -122 123 -123 122 122 123 123 -75 75 -75 75 -108
-108 c-96 -96 -110 -106 -122 -92 -12 14 -6 23 41 71 30 31 85 83 122 116 l68
61 82 -81 c45 -45 87 -82 92 -82 5 0 91 81 190 180 l180 180 198 -198 197
-198 -33 -32 c-28 -27 -36 -30 -45 -19 -9 11 -7 18 8 32 21 19 20 20 -147 187
-92 92 -172 168 -178 168 -6 0 -146 -136 -313 -303 l-302 -303 35 -34 35 -34
273 272 272 272 198 -198 197 -197 -198 -198 -197 -197 -120 120 c-95 95 -117
122 -107 132 10 10 34 -9 115 -90 56 -56 107 -102 112 -102 6 0 86 75 178 168
l167 167 -123 123 -122 122 -123 -123 -122 -122 75 -75 75 -75 108 108 c85 85
110 105 120 95 10 -10 -13 -38 -110 -135 l-123 -123 -87 87 -88 88 -67 -65
c-38 -36 -122 -118 -188 -182 l-120 -118 -198 198 -197 198 33 32 c30 29 35
31 47 17 11 -13 10 -18 -3 -33 -15 -17 -6 -29 153 -187 l170 -170 307 307 307
307 -29 31 c-16 16 -32 30 -37 30 -5 0 -130 -120 -279 -267 l-270 -267 -67 65
c-37 35 -127 122 -200 194 l-132 130 197 197 197 197 96 -91 c52 -51 108 -104
124 -119z m-1210 -985 c9 -8 16 -29 16 -45 0 -25 -4 -29 -29 -29 -23 0 -30 5
-33 23 -2 18 -10 23 -42 25 -22 2 -50 1 -63 -3 -23 -5 -24 -8 -21 -93 l3 -87
62 -3 c58 -3 62 -1 65 20 2 17 11 24 31 26 24 3 27 0 27 -27 0 -54 -28 -71
-119 -71 -63 0 -84 4 -102 19 -22 18 -24 26 -24 124 0 136 1 137 121 137 71 0
96 -4 108 -16z m146 -39 l0 -55 65 0 65 0 0 55 c0 54 0 55 30 55 l30 0 0 -140
0 -140 -30 0 -30 0 0 60 0 60 -65 0 -65 0 0 -61 c0 -60 0 -60 -27 -57 l-28 3
-3 138 -3 137 31 0 c30 0 30 0 30 -55z m470 35 c0 -18 -7 -20 -75 -20 l-75 0
0 -34 0 -35 53 -3 c45 -3 52 -6 55 -25 3 -22 0 -23 -52 -23 l-56 0 0 -35 0
-35 75 0 c74 0 75 0 75 -25 l0 -26 -102 3 -103 3 -3 138 -3 137 106 0 c98 0
105 -1 105 -20z m294 -2 c9 -12 16 -33 16 -45 0 -19 -5 -23 -29 -23 -23 0 -30
5 -33 23 -3 20 -8 22 -63 22 l-60 0 0 -90 0 -90 60 0 c55 0 60 2 63 23 3 17
10 22 33 22 26 0 29 -3 29 -30 0 -54 -28 -70 -125 -70 -118 0 -125 8 -125 138
0 137 4 142 125 142 86 0 95 -2 109 -22z m136 -33 c0 -54 0 -55 29 -55 25 0
35 8 63 55 27 45 37 55 60 55 16 0 28 -3 28 -7 0 -5 -18 -35 -39 -67 -22 -33
-37 -64 -34 -70 4 -6 14 -22 23 -36 9 -14 27 -42 39 -62 l23 -38 -32 0 c-27 0
-35 7 -68 60 -31 49 -42 60 -64 60 -27 0 -28 -1 -28 -60 0 -57 -1 -60 -25 -60
l-25 0 0 140 0 140 25 0 c24 0 25 -3 25 -55z m529 -77 c12 -73 21 -136 21
-140 0 -5 -11 -8 -24 -8 -19 0 -26 7 -31 30 -6 30 -8 30 -70 30 -60 0 -65 -2
-82 -30 -13 -22 -25 -30 -46 -30 -28 0 -29 1 -15 23 8 12 47 75 87 140 69 110
75 117 106 117 l32 0 22 -132z m310 119 c6 -8 14 -28 17 -45 6 -30 5 -32 -25
-32 -24 0 -31 4 -31 19 0 23 -19 31 -75 31 -34 0 -47 -5 -55 -19 -12 -23 -13
-140 -1 -159 5 -9 26 -12 67 -10 52 3 59 5 62 26 3 17 10 22 34 22 29 0 30 -2
24 -32 -10 -54 -37 -68 -127 -68 -112 0 -119 8 -119 144 0 135 1 136 124 136
66 0 97 -4 105 -13z m291 -7 c0 -18 -7 -20 -75 -20 l-75 0 0 -34 0 -35 53 -3
c45 -3 52 -6 55 -25 3 -22 0 -23 -52 -23 l-56 0 0 -35 0 -35 81 0 c78 0 80 -1
77 -22 -3 -22 -8 -23 -105 -26 l-103 -3 0 141 0 140 100 0 c93 0 100 -1 100
-20z m268 8 c7 -7 12 -25 12 -40 0 -23 -4 -28 -24 -28 -15 0 -26 7 -29 20 -4
17 -14 20 -57 20 l-51 0 3 -37 3 -38 70 -3 c38 -2 75 -8 82 -14 8 -6 13 -33
13 -69 0 -72 -10 -79 -115 -79 -95 0 -115 10 -115 55 0 31 3 35 25 35 18 0 25
-5 25 -19 0 -23 19 -31 68 -31 50 0 64 11 60 46 -3 28 -4 29 -74 34 -88 6
-104 18 -104 77 0 77 8 83 108 83 55 0 92 -4 100 -12z m300 0 c7 -7 12 -25 12
-40 0 -23 -4 -28 -24 -28 -15 0 -26 7 -29 20 -4 17 -14 20 -57 20 l-51 0 3
-37 3 -38 70 -3 c38 -2 75 -8 82 -14 8 -6 13 -33 13 -69 0 -72 -10 -79 -115
-79 -95 0 -115 10 -115 55 0 31 3 35 25 35 18 0 25 -5 25 -19 0 -23 19 -31 68
-31 50 0 64 11 60 46 -3 28 -4 29 -74 34 -88 6 -104 18 -104 77 0 77 8 83 108
83 55 0 92 -4 100 -12z m-3160 -478 c4 -12 2 -13 -9 -2 -7 6 -21 12 -31 12
-14 0 -18 -8 -18 -35 0 -27 4 -35 18 -35 10 0 24 6 31 13 11 10 13 9 9 -3 -6
-20 -58 -19 -71 1 -5 9 -7 28 -3 43 6 23 11 27 38 24 17 -2 33 -10 36 -18z
m110 -3 c2 -10 1 -30 -2 -43 -6 -21 -12 -25 -39 -22 -30 3 -32 6 -35 46 l-3
43 38 -3 c27 -2 39 -8 41 -21z m69 -9 l17 -33 7 35 c6 33 6 33 8 -12 0 -27 -2
-48 -6 -48 -5 0 -17 15 -27 33 l-20 32 -7 -35 c-6 -34 -6 -33 -8 13 -1 55 11
60 36 15z m121 25 c-13 -3 -18 -15 -18 -44 0 -21 -4 -39 -10 -39 -5 0 -10 18
-10 39 0 29 -5 41 -17 44 -10 3 2 5 27 5 25 0 37 -2 28 -5z m100 -17 c2 -10
-2 -22 -9 -27 -10 -6 -10 -10 0 -23 9 -10 9 -16 3 -16 -6 0 -16 9 -22 20 -14
26 -28 25 -33 -2 -2 -13 -5 -1 -6 25 l-1 48 32 -3 c23 -2 34 -9 36 -22z m100
-18 c-3 -40 -5 -43 -32 -43 -35 0 -51 23 -42 58 5 23 12 27 42 27 l35 0 -3
-42z m80 -41 c24 -4 24 -4 -5 -6 l-33 -1 2 48 1 47 4 -42 c4 -36 7 -42 31 -46z
m80 76 c-31 -5 -39 -32 -10 -34 16 -1 16 -2 0 -6 -28 -7 -21 -31 10 -36 25 -4
25 -4 -5 -6 -33 -1 -33 0 -33 44 0 44 0 45 33 44 30 -2 30 -2 5 -6z m150 -35
c-3 -40 -5 -43 -35 -46 -33 -3 -33 -3 -33 42 0 46 0 46 36 46 l35 0 -3 -42z
m70 35 c-34 -5 -38 -32 -5 -34 l22 -2 -23 -4 c-29 -6 -24 -25 9 -34 21 -6 21
-7 -8 -8 -32 -1 -33 0 -33 44 0 44 0 45 33 44 30 -2 30 -2 5 -6z m152 -18 c0
-21 -5 -25 -29 -25 -23 0 -31 -5 -34 -22 -2 -13 -5 -2 -6 25 l-1 47 35 0 c31
0 35 -3 35 -25z m108 2 c2 -10 1 -30 -2 -43 -6 -21 -12 -25 -39 -22 -30 3 -32
6 -35 46 l-3 43 38 -3 c27 -2 39 -8 41 -21z m66 -10 l20 -32 7 35 c6 34 6 33
8 -12 0 -27 -3 -48 -7 -48 -4 0 -16 15 -27 33 l-20 32 -6 -35 c-6 -33 -6 -32
-8 13 0 26 2 47 7 47 4 0 16 -15 26 -33z m124 26 c-13 -3 -18 -15 -18 -44 0
-21 -4 -39 -10 -39 -5 0 -10 18 -10 39 0 29 -5 41 -17 44 -10 3 2 5 27 5 25 0
37 -2 28 -5z m100 -35 c-3 -40 -5 -43 -32 -43 -35 0 -51 23 -42 58 5 23 12 27
42 27 l35 0 -3 -42z m110 35 c-31 -5 -39 -32 -10 -34 16 -1 16 -2 0 -6 -28 -7
-21 -31 10 -36 25 -4 25 -4 -5 -6 -33 -1 -33 0 -33 44 0 44 0 45 33 44 30 -2
30 -2 5 -6z m62 -32 c0 -33 4 -40 23 -44 16 -3 13 -5 -10 -6 -33 -1 -33 0 -33
44 0 25 5 45 10 45 6 0 10 -18 10 -39z m108 32 c-31 -5 -39 -32 -10 -34 16 -1
16 -2 0 -6 -28 -7 -21 -31 10 -36 25 -4 25 -4 -5 -6 -33 -1 -33 0 -33 44 0 44
0 45 33 44 30 -2 30 -2 5 -6z m100 0 c-13 -3 -18 -15 -18 -44 0 -21 -4 -39
-10 -39 -5 0 -10 18 -10 39 0 29 -5 41 -17 44 -10 3 2 5 27 5 25 0 37 -2 28
-5z m100 -17 c2 -10 -2 -22 -9 -27 -10 -6 -10 -10 0 -23 9 -10 9 -16 3 -16 -6
0 -16 9 -22 20 -14 26 -28 25 -33 -2 -2 -13 -5 -1 -6 25 l-1 48 32 -3 c23 -2
34 -9 36 -22z m110 1 c2 -10 1 -30 -2 -43 -6 -21 -12 -25 -39 -22 -30 3 -32 6
-35 46 l-3 43 38 -3 c27 -2 39 -8 41 -21z m66 -10 l20 -32 7 35 c6 34 6 33 8
-12 0 -27 -3 -48 -7 -48 -4 0 -16 15 -27 33 l-20 32 -6 -35 c-6 -33 -6 -32 -8
13 0 26 2 47 7 47 4 0 16 -15 26 -33z m109 26 c-7 -2 -13 -20 -13 -38 0 -18 6
-36 13 -38 6 -3 1 -6 -13 -6 -24 -1 -26 2 -22 35 3 24 0 39 -9 45 -9 6 -3 8
21 8 19 0 29 -3 23 -6z m102 -4 c4 -6 4 -13 0 -17 -4 -4 -10 -1 -12 6 -6 15
-39 16 -48 1 -12 -19 4 -59 24 -59 11 0 21 6 24 13 2 6 8 9 12 4 15 -13 -11
-29 -41 -25 -23 2 -30 9 -32 31 -2 16 -1 35 2 43 6 16 62 19 71 3z m103 -31
c-3 -40 -5 -43 -32 -43 -35 0 -51 23 -42 58 5 23 12 27 42 27 l35 0 -3 -42z
m105 35 c-7 -2 -13 -20 -13 -38 0 -18 6 -36 13 -38 6 -3 -1 -5 -18 -5 -16 0
-24 2 -17 5 6 2 12 20 12 38 0 18 -6 36 -12 38 -7 3 1 5 17 5 17 0 24 -2 18
-5z m74 -25 l17 -33 7 35 c6 33 6 33 8 -12 0 -27 -2 -48 -6 -48 -5 0 -17 15
-27 33 l-20 32 -7 -35 c-6 -34 -6 -33 -8 13 -1 55 11 60 36 15z m121 25 c-13
-3 -18 -15 -18 -44 0 -21 -4 -39 -10 -39 -5 0 -10 18 -10 39 0 29 -5 41 -17
44 -10 3 2 5 27 5 25 0 37 -2 28 -5z m70 0 c-34 -5 -38 -32 -5 -34 l22 -2 -22
-4 c-32 -6 -29 -31 5 -36 25 -4 25 -4 -5 -6 -33 -1 -33 0 -33 44 0 44 0 45 33
44 30 -2 30 -2 5 -6z m90 -76 c24 -4 24 -4 -5 -6 l-33 -1 2 48 1 47 4 -42 c4
-36 7 -42 31 -46z m85 76 c-7 -2 -13 -20 -13 -38 0 -18 6 -36 13 -38 6 -3 -4
-5 -23 -5 -19 0 -29 2 -22 5 6 2 12 20 12 38 0 18 -6 36 -12 38 -7 3 3 5 22 5
19 0 29 -2 23 -5z m102 -2 c3 -6 -9 -7 -31 -4 -35 6 -35 6 -32 -28 2 -26 8
-35 26 -37 24 -4 32 22 10 31 -7 3 -3 6 10 6 19 1 23 -4 20 -21 -2 -19 -9 -23
-38 -23 -34 0 -35 1 -38 43 -3 42 -3 42 32 42 19 0 37 -4 41 -9z m73 2 c-34
-5 -38 -32 -5 -34 l22 -2 -22 -4 c-32 -6 -29 -31 5 -36 25 -4 25 -4 -5 -6 -33
-1 -33 0 -33 44 0 44 0 45 33 44 30 -2 30 -2 5 -6z m86 -26 l20 -32 7 35 c6
34 6 33 8 -12 0 -27 -3 -48 -7 -48 -4 0 -16 15 -27 33 l-20 32 -6 -35 c-6 -33
-6 -32 -8 13 0 26 2 47 7 47 4 0 16 -15 26 -33z m124 26 c-13 -3 -18 -15 -18
-44 0 -21 -4 -39 -10 -39 -5 0 -10 18 -10 39 0 29 -5 41 -17 44 -10 3 2 5 27
5 25 0 37 -2 28 -5z m70 0 c-31 -5 -39 -32 -10 -34 16 -1 16 -2 0 -6 -28 -7
-21 -31 10 -36 25 -4 25 -4 -5 -6 -33 -1 -33 0 -33 44 0 44 0 45 33 44 30 -2
30 -2 5 -6z"/>
<path d="M2709 2190 l-36 -55 40 -3 c21 -2 42 -1 44 2 3 3 2 29 -3 58 l-9 53
-36 -55z"/>
<path d="M862 1788 c2 -25 8 -34 26 -36 19 -3 22 1 22 32 0 32 -3 36 -26 36
-23 0 -25 -3 -22 -32z"/>
<path d="M1160 1806 c0 -11 9 -16 26 -16 31 0 28 23 -4 28 -15 2 -22 -2 -22
-12z"/>
<path d="M1260 1784 c0 -31 3 -35 23 -32 17 2 23 11 25 36 3 29 1 32 -22 32
-23 0 -26 -4 -26 -36z"/>
<path d="M1570 1784 c0 -31 3 -35 23 -32 17 2 23 11 25 36 3 29 1 32 -22 32
-23 0 -26 -4 -26 -36z"/>
<path d="M1790 1805 c0 -9 9 -15 25 -15 16 0 25 6 25 15 0 9 -9 15 -25 15 -16
0 -25 -6 -25 -15z"/>
<path d="M1892 1788 c2 -25 8 -34 26 -36 19 -3 22 1 22 32 0 32 -3 36 -26 36
-23 0 -25 -3 -22 -32z"/>
<path d="M2190 1784 c0 -31 3 -35 23 -32 17 2 23 11 25 36 3 29 1 32 -22 32
-23 0 -26 -4 -26 -36z"/>
<path d="M2670 1806 c0 -11 9 -16 26 -16 31 0 28 23 -4 28 -15 2 -22 -2 -22
-12z"/>
<path d="M2772 1788 c2 -25 8 -34 26 -36 19 -3 22 1 22 32 0 32 -3 36 -26 36
-23 0 -25 -3 -22 -32z"/>
<path d="M3160 1784 c0 -31 3 -35 23 -32 17 2 23 11 25 36 3 29 1 32 -22 32
-23 0 -26 -4 -26 -36z"/>
</g>
</svg>
